<?xml version="1.0" encoding="utf-8"?>
<!-- Svg Vector Icons : http://www.onlinewebfonts.com/icon -->
<!DOCTYPE svg PUBLIC "-//W3C//DTD SVG 1.1//EN" "http://www.w3.org/Graphics/SVG/1.1/DTD/svg11.dtd">
<svg version="1.1" xmlns="http://www.w3.org/2000/svg" xmlns:xlink="http://www.w3.org/1999/xlink" x="0px" y="0px" viewBox="0 0 1000 1000" enable-background="new 0 0 1000 1000" xml:space="preserve">
<metadata> Svg Vector Icons : http://www.onlinewebfonts.com/icon </metadata>
<g><path d="M495,134.2c-44.1,0-86.9,7.6-127,21.9h142V169c102.1,4.4,192.4,53.4,251.2,127.7H804C737.3,198.7,623.8,134.2,495,134.2z"/><path d="M212,680.2h-40.5C235.4,791,356.4,865.8,495,865.8c63.8,0,125-16,178.7-45h-94c-27.3,6.9-55.7,10.6-84.8,10.6C376.4,831.4,272.1,771.2,212,680.2z"/><path d="M368,156.1c-60.6,21.7-114.8,58.7-157.1,108c-6.2,7.2-5.4,18.1,1.9,24.3c7.2,6.2,18.1,5.4,24.3-1.9c63.7-74.3,157.2-118,257.9-118c5,0,10.1,0.1,15,0.3v-12.8H368z"/><path d="M157.8,500c0-42.3,8.1-83.5,23.6-122l-8.5-8.4l-37.1,36.5c-8.2,30.3-12.4,61.8-12.4,93.9c0,65.5,17.5,127,48.2,180.2H212C177.8,628.3,157.8,566.4,157.8,500z"/><path d="M185,357.8h-3.2c0.4,0.7,0.8,1.3,1.1,2L185,357.8z"/><path d="M174,351.2c3.3,1.4,6,3.7,7.8,6.6h3.2l-2.1,2c2,4.2,2.2,9.3,0.3,13.9c-0.6,1.4-1.2,2.9-1.7,4.3l127.2,125.1c6.8,6.7,17.7,6.6,24.3-0.2c6.7-6.8,6.6-17.7-0.2-24.3L185,333.2c-6.7-6.6-17.4-6.6-24.1,0L15.1,476.5c-6.8,6.7-6.9,17.6-0.2,24.3c6.7,6.8,17.6,6.9,24.3,0.2l96.5-94.9c4.2-15.6,9.4-30.9,15.7-45.8C155.1,351.6,165.2,347.5,174,351.2z"/><path d="M182.9,359.8l-10,9.8l8.5,8.4c0.6-1.4,1.1-2.9,1.7-4.3C185.1,369.1,184.9,364,182.9,359.8z"/><path d="M181.8,357.8h-21l12.1,11.9l10-9.8C182.6,359.1,182.2,358.4,181.8,357.8z"/><path d="M160.8,357.8h21c-1.8-2.8-4.5-5.2-7.8-6.6c-8.8-3.7-18.9,0.4-22.5,9.2c-6.3,14.9-11.5,30.2-15.7,45.8l37.1-36.5L160.8,357.8z"/><path d="M775.9,695.4c-0.1,0-0.1,0-0.2,0c0.2,0,0.5,0,0.7,0C776.2,695.4,776,695.4,775.9,695.4z"/><path d="M832.2,500c0,34.1-5.2,67.4-15.4,99.2l4,3.9c3.1-1.5,6.6-2.1,10-1.6l28.2-27.8c5-24.1,7.6-48.8,7.6-73.8c0-75.2-23.1-145.2-62.6-203.3h-42.7C805.7,352.8,832.2,423.4,832.2,500z"/><path d="M830.8,601.6c-3.4-0.5-6.9,0-10,1.6l4.2,4.1L830.8,601.6z"/><path d="M793.1,712.6c0-0.1,0-0.1,0-0.2c0,0.2,0,0.5,0,0.7C793,713,793.1,712.8,793.1,712.6z"/><path d="M786.5,699.1c-0.1-0.1-0.3-0.2-0.4-0.3c0.2,0.1,0.4,0.3,0.6,0.4C786.6,699.2,786.5,699.1,786.5,699.1z"/><path d="M789.4,723.2c0.1-0.1,0.2-0.3,0.3-0.4c-3.1,4.3-8.2,7-13.9,7c-9.5,0-17.2-7.7-17.2-17.2c0-4.1,1.4-7.8,3.8-10.8c0,0.1-0.1,0.1-0.1,0.1c-46.1,58.8-110.2,100.4-182.5,118.8h94C718.3,796.7,757.7,763.7,789.4,723.2z"/><path d="M775.9,729.8c5.7,0,10.7-2.8,13.9-7c0.2-0.3,0.4-0.5,0.6-0.8c0.1-0.2,0.3-0.4,0.4-0.6c0.2-0.3,0.3-0.5,0.5-0.8c0.1-0.2,0.2-0.5,0.3-0.7c0.1-0.3,0.2-0.5,0.4-0.8c0.1-0.3,0.2-0.5,0.3-0.8c0.1-0.3,0.2-0.5,0.3-0.8c0.1-0.3,0.2-0.6,0.2-0.9c0.1-0.3,0.1-0.5,0.2-0.8c0.1-0.3,0.1-0.6,0.1-0.9c0-0.2,0.1-0.5,0.1-0.7c0-0.3,0-0.7,0.1-1c0-0.2,0-0.5,0-0.7c0-0.3,0-0.6,0-1c0-0.3,0-0.5-0.1-0.8c0-0.3-0.1-0.5-0.1-0.8c0-0.3-0.1-0.6-0.2-0.9c0-0.2-0.1-0.4-0.2-0.6c-0.1-0.3-0.2-0.7-0.3-1c-0.1-0.2-0.1-0.4-0.2-0.6c-0.1-0.3-0.2-0.6-0.4-0.9c-0.1-0.3-0.2-0.5-0.4-0.7c-0.1-0.2-0.2-0.5-0.4-0.7c-0.2-0.3-0.3-0.6-0.5-0.9c-0.1-0.2-0.2-0.4-0.3-0.5c-0.2-0.3-0.4-0.6-0.6-0.8c-0.1-0.2-0.3-0.3-0.4-0.5c-0.2-0.2-0.4-0.5-0.6-0.7c-0.2-0.2-0.4-0.4-0.5-0.6c-0.2-0.2-0.4-0.3-0.6-0.5c-0.2-0.2-0.5-0.4-0.7-0.6c-0.2-0.2-0.4-0.3-0.6-0.4c-0.3-0.2-0.5-0.4-0.8-0.6c-0.2-0.1-0.4-0.3-0.6-0.4c-0.3-0.2-0.5-0.3-0.8-0.5c-0.2-0.1-0.5-0.2-0.7-0.3c-0.3-0.1-0.5-0.2-0.8-0.3c-0.3-0.1-0.5-0.2-0.8-0.3c-0.3-0.1-0.5-0.2-0.8-0.3c-0.3-0.1-0.6-0.2-0.9-0.2c-0.3-0.1-0.5-0.1-0.8-0.2c-0.3-0.1-0.6-0.1-0.9-0.1c-0.2,0-0.5-0.1-0.7-0.1c-0.3,0-0.7,0-1-0.1c-0.2,0-0.5,0-0.7,0c-0.3,0-0.6,0-1,0c-0.3,0-0.5,0-0.8,0.1c-0.3,0-0.5,0.1-0.8,0.1c-0.3,0-0.6,0.1-0.9,0.2c-0.2,0-0.4,0.1-0.6,0.2c-0.3,0.1-0.7,0.2-1,0.3c-0.2,0.1-0.4,0.2-0.6,0.2c-0.3,0.1-0.6,0.2-0.9,0.4c-0.3,0.1-0.5,0.2-0.7,0.4c-0.2,0.1-0.5,0.2-0.7,0.4c-0.3,0.2-0.6,0.3-0.9,0.5c-0.2,0.1-0.4,0.2-0.5,0.3c-0.3,0.2-0.5,0.4-0.8,0.6c-0.2,0.1-0.4,0.3-0.5,0.4c-0.2,0.2-0.4,0.4-0.7,0.6c-0.2,0.2-0.4,0.4-0.6,0.6c-0.2,0.2-0.3,0.4-0.5,0.6c-0.2,0.2-0.4,0.5-0.6,0.7c-2.4,2.9-3.8,6.7-3.8,10.8C758.6,722.1,766.4,729.8,775.9,729.8z"/><path d="M844.4,624.7c-0.1,0.3-0.3,0.7-0.4,1c-0.1,0.2-0.2,0.4-0.3,0.6c-0.1,0.3-0.3,0.6-0.5,0.8c-0.1,0.2-0.3,0.5-0.4,0.7c-0.1,0.2-0.3,0.4-0.4,0.6c-0.2,0.3-0.4,0.5-0.6,0.8c-0.1,0.2-0.3,0.3-0.4,0.5c-0.2,0.3-0.5,0.6-0.8,0.8c0,0.1-0.1,0.1-0.1,0.2c-0.1,0.1-0.2,0.2-0.3,0.3c-0.3,0.2-0.5,0.5-0.8,0.7c-0.2,0.2-0.4,0.3-0.6,0.5c-0.2,0.2-0.5,0.4-0.7,0.5c-0.2,0.2-0.5,0.3-0.7,0.5c-0.2,0.1-0.4,0.3-0.6,0.4c-0.3,0.2-0.6,0.3-0.9,0.4c-0.2,0.1-0.4,0.2-0.6,0.3c-0.3,0.1-0.6,0.3-0.9,0.4c-0.2,0.1-0.4,0.2-0.7,0.2c-0.3,0.1-0.6,0.2-0.9,0.3c-0.3,0.1-0.5,0.1-0.8,0.2c-0.3,0.1-0.5,0.1-0.8,0.2c-0.3,0.1-0.6,0.1-0.9,0.1c-0.2,0-0.5,0.1-0.7,0.1c-0.3,0-0.7,0-1,0c-0.2,0-0.4,0-0.7,0c-0.3,0-0.6,0-1,0c-0.2,0-0.5,0-0.7-0.1c-0.3,0-0.6-0.1-0.9-0.1c-0.3-0.1-0.6-0.1-0.9-0.2c-0.2-0.1-0.5-0.1-0.7-0.2c-0.3-0.1-0.7-0.2-1-0.3c-0.1,0-0.3-0.1-0.4-0.1c-0.1,0-0.1-0.1-0.2-0.1c-0.3-0.1-0.7-0.3-1-0.4c-0.2-0.1-0.4-0.2-0.6-0.3c-0.3-0.1-0.6-0.3-0.9-0.5c-0.2-0.1-0.5-0.3-0.7-0.4c-0.2-0.1-0.4-0.3-0.6-0.4c-0.3-0.2-0.5-0.4-0.8-0.6c-0.2-0.1-0.3-0.3-0.5-0.4c-0.3-0.2-0.6-0.5-0.8-0.7c-0.1,0-0.1-0.1-0.2-0.1c-0.1-0.1-0.2-0.2-0.3-0.3c-0.2-0.3-0.5-0.5-0.7-0.8c-0.2-0.2-0.3-0.4-0.5-0.6c-0.2-0.2-0.4-0.5-0.5-0.7c-0.2-0.2-0.3-0.5-0.5-0.7c-0.1-0.2-0.3-0.4-0.4-0.6c-0.2-0.3-0.3-0.6-0.5-0.9c-0.1-0.2-0.2-0.4-0.3-0.6c-0.1-0.3-0.3-0.6-0.4-0.9c-0.1-0.2-0.2-0.4-0.2-0.7c-0.1-0.3-0.2-0.6-0.3-0.9c-0.1-0.3-0.1-0.5-0.2-0.8c-0.1-0.3-0.1-0.5-0.2-0.8c-0.1-0.3-0.1-0.6-0.1-0.9c0-0.2-0.1-0.5-0.1-0.7c0-0.3,0-0.7,0-1c0-0.2,0-0.5,0-0.7c0-0.3,0-0.6,0-1c0-0.2,0-0.5,0.1-0.7c0-0.3,0.1-0.6,0.1-0.9c0.1-0.3,0.1-0.6,0.2-0.9c0.1-0.2,0.1-0.5,0.2-0.7c0.1-0.3,0.2-0.7,0.3-1c0-0.1,0.1-0.3,0.1-0.4c1.6-4.4,3.2-8.9,4.6-13.4L691.4,475.9c-6.8-6.7-17.7-6.6-24.3,0.2c-6.7,6.8-6.6,17.7,0.2,24.3l145.7,143.3c6.7,6.6,17.4,6.6,24.1,0l147.8-145.4c6.8-6.7,6.9-17.6,0.2-24.3c-6.7-6.8-17.6-6.9-24.3-0.2L859,573.8c-3.6,17.3-8.4,34.2-14.5,50.7C844.5,624.6,844.5,624.7,844.4,624.7z"/><path d="M822.4,634.7c0.1,0,0.3,0.1,0.4,0.1c-0.2-0.1-0.4-0.1-0.6-0.2C822.3,634.7,822.4,634.7,822.4,634.7z"/><path d="M840.5,630.8c0.1-0.1,0.1-0.1,0.1-0.2c-0.1,0.1-0.3,0.3-0.4,0.4C840.3,630.9,840.4,630.9,840.5,630.8z"/><path d="M812.1,613c0.8-2.4,2.2-4.7,4.1-6.6c1.4-1.4,2.9-2.5,4.6-3.3l-4-3.9c-1.4,4.5-3,9-4.6,13.4C812.2,612.8,812.1,612.9,812.1,613z"/><path d="M837.1,619.2L825,607.3l-12.1,11.9H837.1z"/><path d="M840.5,606.4c5,5,6.2,12.2,3.9,18.3c0-0.1,0.1-0.1,0.1-0.2c6.1-16.5,10.9-33.5,14.5-50.7l-28.2,27.8C834.4,602.1,837.8,603.7,840.5,606.4z"/><path d="M812.1,613c-0.1,0.3-0.2,0.7-0.3,1c-0.1,0.2-0.1,0.5-0.2,0.7c-0.1,0.3-0.1,0.6-0.2,0.9c-0.1,0.3-0.1,0.6-0.1,0.9c0,0.2-0.1,0.5-0.1,0.7c0,0.3,0,0.6,0,1c0,0.2,0,0.4,0,0.7c0,0.3,0,0.7,0,1c0,0.2,0,0.5,0.1,0.7c0,0.3,0.1,0.6,0.1,0.9c0,0.3,0.1,0.5,0.2,0.8c0.1,0.3,0.1,0.5,0.2,0.8c0.1,0.3,0.2,0.6,0.3,0.9c0.1,0.2,0.2,0.4,0.2,0.7c0.1,0.3,0.2,0.6,0.4,0.9c0.1,0.2,0.2,0.4,0.3,0.6c0.1,0.3,0.3,0.6,0.5,0.9c0.1,0.2,0.2,0.4,0.4,0.6c0.2,0.3,0.3,0.5,0.5,0.7c0.2,0.2,0.3,0.5,0.5,0.7c0.2,0.2,0.3,0.4,0.5,0.6c0.2,0.3,0.5,0.5,0.7,0.8c0.1,0.2,0.3,0.3,0.4,0.4c0.3,0.3,0.5,0.5,0.8,0.7c0.2,0.1,0.3,0.3,0.5,0.4c0.3,0.2,0.5,0.4,0.8,0.6c0.2,0.2,0.4,0.3,0.6,0.4c0.2,0.1,0.5,0.3,0.7,0.4c0.3,0.2,0.6,0.3,0.9,0.5c0.2,0.1,0.4,0.2,0.6,0.3c0.3,0.2,0.7,0.3,1,0.4c0.2,0.1,0.4,0.1,0.6,0.2c0.3,0.1,0.7,0.2,1,0.3c0.2,0.1,0.5,0.1,0.7,0.2c0.3,0.1,0.6,0.1,0.9,0.2c0.3,0.1,0.6,0.1,0.9,0.1c0.2,0,0.5,0.1,0.7,0.1c0.3,0,0.7,0,1,0c0.2,0,0.4,0,0.7,0c0.3,0,0.7,0,1,0c0.2,0,0.5,0,0.7-0.1c0.3,0,0.6-0.1,0.9-0.1c0.3,0,0.5-0.1,0.8-0.2c0.3-0.1,0.5-0.1,0.8-0.2c0.3-0.1,0.6-0.2,0.9-0.3c0.2-0.1,0.4-0.2,0.7-0.2c0.3-0.1,0.6-0.2,0.9-0.4c0.2-0.1,0.4-0.2,0.6-0.3c0.3-0.1,0.6-0.3,0.9-0.5c0.2-0.1,0.4-0.2,0.6-0.4c0.3-0.2,0.5-0.3,0.7-0.5c0.2-0.2,0.5-0.3,0.7-0.5c0.2-0.2,0.4-0.3,0.6-0.5c0.3-0.2,0.5-0.5,0.8-0.7c0.1-0.1,0.3-0.3,0.4-0.4c0.3-0.3,0.5-0.5,0.8-0.8c0.1-0.2,0.3-0.3,0.4-0.5c0.2-0.3,0.4-0.5,0.6-0.8c0.1-0.2,0.3-0.4,0.4-0.6c0.1-0.2,0.3-0.5,0.4-0.7c0.2-0.3,0.3-0.6,0.5-0.8c0.1-0.2,0.2-0.4,0.3-0.6c0.2-0.3,0.3-0.7,0.4-1c2.3-6.1,1.1-13.4-3.9-18.3c-2.7-2.7-6.2-4.3-9.7-4.8l-5.8,5.7l12.1,11.9h-24.1l12.1-11.9l-4.2-4.1c-1.7,0.8-3.2,1.9-4.6,3.3C814.3,608.4,812.9,610.6,812.1,613z"/><path d="M816.2,630.8c0.1,0.1,0.1,0.1,0.2,0.1c-0.1-0.1-0.3-0.3-0.4-0.4C816,630.6,816.1,630.7,816.2,630.8z"/></g>
</svg>