<?xml version="1.0" encoding="UTF-8" standalone="no"?>
<svg
   class="w-6 h-6"
   fill="none"
   stroke="currentColor"
   viewBox="0 0 24 24"
   version="1.1"
   id="svg925"
   sodipodi:docname="share.svg"
   inkscape:version="1.1.1 (c3084ef, 2021-09-22)"
   inkscape:export-filename="/Users/Navneet/Documents/codespace/workout/web_app/public/css/icons/share.png"
   inkscape:export-xdpi="96"
   inkscape:export-ydpi="96"
   xmlns:inkscape="http://www.inkscape.org/namespaces/inkscape"
   xmlns:sodipodi="http://sodipodi.sourceforge.net/DTD/sodipodi-0.dtd"
   xmlns="http://www.w3.org/2000/svg"
   xmlns:svg="http://www.w3.org/2000/svg">
  <defs
     id="defs929" />
  <sodipodi:namedview
     id="namedview927"
     pagecolor="#ffffff"
     bordercolor="#666666"
     borderopacity="1.0"
     inkscape:pageshadow="2"
     inkscape:pageopacity="0.0"
     inkscape:pagecheckerboard="0"
     showgrid="false"
     inkscape:zoom="28.083333"
     inkscape:cx="9.7744807"
     inkscape:cy="12"
     inkscape:window-width="1440"
     inkscape:window-height="900"
     inkscape:window-x="0"
     inkscape:window-y="0"
     inkscape:window-maximized="0"
     inkscape:current-layer="svg925" />
  <path
     stroke-linecap="round"
     stroke-linejoin="round"
     stroke-width="1.99651"
     d="M 7.6708389,13.338393 C 7.8724892,12.935104 7.986291,12.4799 7.986291,11.998746 c 0,-0.481157 -0.1138018,-0.93636 -0.3154521,-1.339655 m 0,2.679302 a 2.9948006,2.9947503 0 1 1 0,-2.679302 m 0,2.679302 6.6205051,3.310199 M 7.6708389,10.659091 14.291344,7.3488947 m 0,0 a 2.9951561,2.9951061 0 1 0 5.357698,-2.6793034 2.9951561,2.9951061 0 0 0 -5.357698,2.6793034 z m 0,9.2996973 a 2.9956032,2.9955529 0 1 0 5.358696,2.679306 2.9956032,2.9955529 0 0 0 -5.358696,-2.679306 z"
     id="path923" />
</svg>
